<svg xmlns="http://www.w3.org/2000/svg" width="512" height="512" viewBox="0 0 512 512" version="1.1"><path d="" stroke="none" fill="#080404" fill-rule="evenodd"/><path d="M 243.996 53.869 C 240.969 54.838, 237.144 56.501, 235.496 57.563 C 230.845 60.563, 4.788 248.869, 2.255 251.854 C 0.741 253.639, 0.008 255.811, 0.005 258.528 C 0.001 261.943, 0.874 263.637, 5.750 269.669 C 22.554 290.457, 24.248 292, 30.269 292 C 32.326 292, 34.901 291.092, 36.615 289.763 C 38.202 288.533, 87.984 247.133, 147.243 197.763 C 206.501 148.394, 255.442 108, 256 108 C 256.558 108, 305.499 148.394, 364.757 197.763 C 424.016 247.133, 473.798 288.533, 475.385 289.763 C 477.099 291.092, 479.674 292, 481.731 292 C 487.783 292, 489.018 290.870, 506.723 269.138 C 512.154 262.473, 512.950 260.959, 512.973 257.250 C 512.988 254.913, 512.663 253.105, 512.250 253.234 C 511.837 253.362, 510.375 252.347, 509 250.978 C 507.625 249.608, 491.313 235.908, 472.750 220.533 L 439 192.577 439 125.866 L 439 59.154 435.923 56.077 L 432.846 53 398.439 53 L 364.032 53 360.766 55.917 L 357.500 58.833 357 91.319 L 356.500 123.805 319.500 92.851 C 299.150 75.826, 280.520 60.502, 278.099 58.797 C 268.914 52.326, 255.067 50.325, 243.996 53.869 M 164.305 209.337 L 73.109 284.500 73.305 365.574 L 73.500 446.647 76 450.337 C 77.375 452.366, 80.300 455.258, 82.500 456.763 L 86.500 459.500 151.250 459.778 L 216 460.056 216 399.028 L 216 338 256 338 L 296 338 296 399.028 L 296 460.056 360.750 459.778 L 425.500 459.500 429.500 456.763 C 431.700 455.258, 434.625 452.366, 436 450.337 L 438.500 446.647 438.696 365.574 L 438.892 284.500 347.772 209.500 C 297.655 168.250, 256.392 134.427, 256.075 134.337 C 255.759 134.247, 214.462 167.997, 164.305 209.337 M 0.286 258.500 C 0.294 261.250, 0.488 262.256, 0.718 260.736 C 0.947 259.216, 0.941 256.966, 0.704 255.736 C 0.467 254.506, 0.279 255.750, 0.286 258.500" stroke="none" fill="#040404" fill-rule="evenodd"/></svg>