<svg xmlns="http://www.w3.org/2000/svg" width="2048" height="2048" viewBox="0 0 2048 2048" version="1.1"><path d="M 735.500 293.687 C 620.849 301.183, 510.712 342.092, 416.500 412.176 C 391.825 430.532, 372.118 447.764, 346.435 473.441 C 304.892 514.974, 275.304 552.771, 245.567 602.293 C 195.062 686.398, 162.569 782.734, 151.057 882.500 C 147.661 911.926, 146.669 930.513, 146.706 964 C 146.753 1006.315, 149.417 1041.584, 155.438 1079.624 L 157.674 1093.749 166.514 1104.124 C 179.564 1119.442, 216.322 1155.841, 233.480 1170.437 C 301.285 1228.118, 378.147 1269.888, 459.826 1293.443 C 506.300 1306.845, 548.917 1313.752, 599.193 1316.028 C 634.735 1317.637, 1302.678 1316.826, 1320 1315.153 C 1355.163 1311.756, 1384.094 1307.123, 1412 1300.420 C 1622.197 1249.930, 1794.775 1085.100, 1866.314 866.500 C 1884.616 810.576, 1895.481 754.879, 1900.158 693 C 1902.012 668.473, 1901.728 612.886, 1899.622 588 C 1897.810 566.591, 1895.375 545.606, 1892.406 525.826 C 1890.367 512.238, 1891.867 514.463, 1865.872 486.431 C 1834.257 452.337, 1794.202 418.395, 1755 392.479 C 1679.306 342.441, 1592.685 309.732, 1504.823 298.009 C 1465.954 292.823, 1479.786 292.986, 1096.671 293.180 C 900.777 293.279, 738.250 293.508, 735.500 293.687" stroke="none" fill="#0454cc" fill-rule="evenodd"/><path d="M 588.500 0.651 C 558.892 2.983, 537.947 5.654, 514.500 10.087 C 423.390 27.314, 338.369 64.929, 263.029 121.344 C 220.618 153.102, 180.571 191.974, 146.608 234.352 C 72.231 327.154, 23.463 440.736, 6.573 560.500 C 1.281 598.023, 0.526 610.268, 0.526 658.500 C 0.526 706.669, 1.285 718.924, 6.565 756 C 24.525 882.110, 75.424 997.017, 156.396 1094.253 L 167.015 1107.005 172.446 1125.753 C 203.369 1232.499, 256.338 1323.673, 333.519 1403 C 341.814 1411.525, 483.150 1557.100, 647.599 1726.500 C 812.049 1895.900, 948.399 2035.684, 950.599 2037.132 C 957.524 2041.687, 964.744 2044.963, 971.231 2046.492 C 979.246 2048.382, 992.933 2048.393, 1000 2046.515 C 1024.378 2040.036, 1043.400 2018.210, 1046.921 1992.678 C 1047.663 1987.297, 1048 1922.299, 1048 1784.428 L 1048 1584 1249.063 1584 C 1377.214 1584, 1455.451 1583.625, 1464.813 1582.967 C 1528.465 1578.491, 1593.733 1563.252, 1653.684 1538.867 C 1674.541 1530.384, 1715.939 1509.743, 1734.500 1498.572 C 1855.636 1425.666, 1948.379 1316.472, 2001.252 1184.500 C 2019.813 1138.173, 2034.263 1084.017, 2041.409 1034 C 2046.790 996.332, 2047.477 985.526, 2047.474 938.500 C 2047.472 891.360, 2046.675 878.730, 2041.395 842.143 C 2029.589 760.335, 2001.653 679.430, 1960.547 608 C 1943.836 578.963, 1918.102 542.203, 1896.937 517.140 C 1891.197 510.342, 1885.950 503.817, 1885.277 502.640 C 1884.604 501.463, 1881.821 491.950, 1879.091 481.500 C 1858.810 403.862, 1823.416 328.150, 1777.181 263.500 C 1698.929 154.083, 1592.319 73.783, 1469.418 31.688 C 1420.921 15.077, 1370.828 4.993, 1317 1.005 C 1304.892 0.108, 599.747 -0.235, 588.500 0.651 M 735.500 293.687 C 620.849 301.183, 510.712 342.092, 416.500 412.176 C 391.825 430.532, 372.118 447.764, 346.435 473.441 C 304.892 514.974, 275.304 552.771, 245.567 602.293 C 195.062 686.398, 162.569 782.734, 151.057 882.500 C 147.661 911.926, 146.669 930.513, 146.706 964 C 146.753 1006.315, 149.417 1041.584, 155.438 1079.624 L 157.674 1093.749 166.514 1104.124 C 179.564 1119.442, 216.322 1155.841, 233.480 1170.437 C 301.285 1228.118, 378.147 1269.888, 459.826 1293.443 C 506.300 1306.845, 548.917 1313.752, 599.193 1316.028 C 634.735 1317.637, 1302.678 1316.826, 1320 1315.153 C 1355.163 1311.756, 1384.094 1307.123, 1412 1300.420 C 1622.197 1249.930, 1794.775 1085.100, 1866.314 866.500 C 1884.616 810.576, 1895.481 754.879, 1900.158 693 C 1902.012 668.473, 1901.728 612.886, 1899.622 588 C 1897.810 566.591, 1895.375 545.606, 1892.406 525.826 C 1890.367 512.238, 1891.867 514.463, 1865.872 486.431 C 1834.257 452.337, 1794.202 418.395, 1755 392.479 C 1679.306 342.441, 1592.685 309.732, 1504.823 298.009 C 1465.954 292.823, 1479.786 292.986, 1096.671 293.180 C 900.777 293.279, 738.250 293.508, 735.500 293.687" stroke="none" fill="#699afb" fill-rule="evenodd"/></svg>