<?xml version="1.0" standalone="no"?>
<!DOCTYPE svg PUBLIC "-//W3C//DTD SVG 20010904//EN"
 "http://www.w3.org/TR/2001/REC-SVG-20010904/DTD/svg10.dtd">
<svg version="1.0" xmlns="http://www.w3.org/2000/svg"
 width="512.000000pt" height="512.000000pt" viewBox="0 0 512.000000 512.000000"
 preserveAspectRatio="xMidYMid meet">

<g transform="translate(0.000000,512.000000) scale(0.100000,-0.100000)"
fill="#000000" stroke="none">
<path d="M1725 4341 c-57 -27 -1688 -1662 -1710 -1713 -20 -49 -19 -94 4 -143
13 -27 281 -301 852 -871 677 -676 841 -834 873 -844 83 -26 177 14 215 92 25
52 27 95 6 146 -11 26 -217 238 -683 705 l-667 667 2179 0 2180 0 44 21 c134
65 133 259 -2 320 -40 18 -120 19 -2221 19 l-2180 0 672 673 c542 543 673 679
683 711 26 83 -14 177 -92 215 -54 26 -101 26 -153 2z"/>
</g>
</svg>
